<svg xmlns="http://www.w3.org/2000/svg" width="1920" height="1080" viewBox="0 0 1920 1080">
  <defs>
    <linearGradient id="grad1" x1="0%" y1="0%" x2="100%" y2="100%">
      <stop offset="0%" style="stop-color:#4158D0;stop-opacity:1" />
      <stop offset="50%" style="stop-color:#C850C0;stop-opacity:1" />
      <stop offset="100%" style="stop-color:#FFCC70;stop-opacity:1" />
    </linearGradient>
  </defs>
  <rect width="1920" height="1080" fill="url(#grad1)" />
  <path fill="#ffffff" fill-opacity="0.05" d="M0,256L48,266.7C96,277,192,299,288,293.3C384,288,480,256,576,256C672,256,768,288,864,293.3C960,299,1056,277,1152,240C1248,203,1344,149,1392,122.7L1440,96L1440,0L1392,0C1344,0,1248,0,1152,0C1056,0,960,0,864,0C768,0,672,0,576,0C480,0,384,0,288,0C192,0,96,0,48,0L0,0Z"></path>
  <path fill="#ffffff" fill-opacity="0.05" d="M0,64L48,85.3C96,107,192,149,288,160C384,171,480,149,576,122.7C672,96,768,64,864,85.3C960,107,1056,181,1152,192C1248,203,1344,149,1392,122.7L1440,96L1440,0L1392,0C1344,0,1248,0,1152,0C1056,0,960,0,864,0C768,0,672,0,576,0C480,0,384,0,288,0C192,0,96,0,48,0L0,0Z"></path>
  <path fill="#ffffff" fill-opacity="0.05" d="M0,288L48,282.7C96,277,192,267,288,250.7C384,235,480,213,576,213.3C672,213,768,235,864,245.3C960,256,1056,256,1152,213.3C1248,171,1344,85,1392,42.7L1440,0L1440,0L1392,0C1344,0,1248,0,1152,0C1056,0,960,0,864,0C768,0,672,0,576,0C480,0,384,0,288,0C192,0,96,0,48,0L0,0Z"></path>
  <path fill="#ffffff" fill-opacity="0.05" d="M0,320L48,309.3C96,299,192,277,288,250.7C384,224,480,192,576,192C672,192,768,224,864,240C960,256,1056,256,1152,213.3C1248,171,1344,85,1392,42.7L1440,0L1440,0L1392,0C1344,0,1248,0,1152,0C1056,0,960,0,864,0C768,0,672,0,576,0C480,0,384,0,288,0C192,0,96,0,48,0L0,0Z"></path>
</svg> 